<?xml version="1.0" encoding="UTF-8"?>
<svg id="Capa_1" data-name="Capa 1" xmlns="http://www.w3.org/2000/svg" xmlns:xlink="http://www.w3.org/1999/xlink" viewBox="0 0 548.93 125.15">
  <defs>
    <style>
      .cls-1 {
        fill: #fff;
      }

      .cls-2 {
        fill: url(#Degradado_sin_nombre_21-2);
      }

      .cls-3 {
        fill: url(#Degradado_sin_nombre_21);
      }
    </style>
    <linearGradient id="Degradado_sin_nombre_21" data-name="Degradado sin nombre 21" x1="60.47" y1="43.06" x2="137.95" y2="43.06" gradientUnits="userSpaceOnUse">
      <stop offset="0" stop-color="#f9b233"/>
      <stop offset=".17" stop-color="#f7a730"/>
      <stop offset=".47" stop-color="#f38c2a"/>
      <stop offset=".85" stop-color="#ec601f"/>
      <stop offset="1" stop-color="#e94e1b"/>
    </linearGradient>
    <linearGradient id="Degradado_sin_nombre_21-2" data-name="Degradado sin nombre 21" x1="399.11" y1="43.06" x2="476.59" y2="43.06" xlink:href="#Degradado_sin_nombre_21"/>
  </defs>
  <g>
    <path class="cls-1" d="M311.75,107.01c.16-.74.21-1.06.21-1.45,0-1.11-.74-1.45-3.21-1.45-2.76,0-3.61.21-4.21,1.03-.47.63-.82,1.82-.82,2.83,0,.82.4,1.24,1.26,1.4q.47.08,2.97.21c2.4.13,3.08.21,3.9.5,1.03.34,1.58,1.21,1.58,2.4,0,1.56-.74,4.25-1.45,5.28-.66.92-1.68,1.56-3.05,1.82-.74.16-2.16.24-3.97.24-2.97,0-3.9-.16-4.82-.79-.58-.4-.97-1.27-.97-2.14,0-.74.05-1.21.37-2.75h2.61l-.08.4c-.1.55-.18,1.14-.18,1.4,0,.55.21,1.06.53,1.27.45.32,1,.37,3.47.37,3.03,0,3.74-.32,4.26-1.82.29-.82.5-1.85.5-2.35,0-.61-.21-.98-.68-1.19q-.42-.19-3.45-.37c-3.11-.16-3.5-.24-4.29-.66-.84-.48-1.32-1.27-1.32-2.27,0-1.96.76-4.33,1.71-5.39,1.13-1.21,2.74-1.64,6.4-1.64,2.76,0,3.87.19,4.76.82.58.4.92,1.19.92,2.14,0,.61-.08,1.11-.32,2.17h-2.63Z"/>
    <path class="cls-1" d="M326.07,107.88c.58.45.92,1.29.92,2.3s-.37,3.09-.87,4.91c-1.05,3.78-2.34,4.73-6.5,4.73-2.16,0-3.24-.21-3.92-.71-.61-.45-.92-1.32-.92-2.4,0-1.29.63-4.44,1.26-6.21.58-1.64,1.61-2.64,3.11-3.04.68-.21,1.68-.29,3.03-.29,2.18,0,3.24.19,3.9.71ZM318.33,111.13c-.5,1.53-1.03,4.15-1.03,5.04,0,1.37.5,1.69,2.69,1.69s2.97-.47,3.5-2.27c.5-1.69.95-4.01.95-4.83,0-1.32-.53-1.64-2.69-1.64s-2.92.42-3.42,2.01Z"/>
    <path class="cls-1" d="M330.22,119.66h-2.42l3.74-17.62h2.42l-3.74,17.62Z"/>
    <path class="cls-1" d="M343.75,119.66h-2.42l.55-1.88-.05-.03c-.92,1.43-2.29,2.06-4.45,2.06-2.29,0-3.47-.9-3.47-2.62,0-.47.05-1.03.18-1.64l1.76-8.24h2.42l-1.68,7.87c-.13.61-.18,1.06-.18,1.35,0,.92.61,1.29,2.05,1.29,2.5,0,3.42-.85,4.03-3.62l1.45-6.89h2.42l-2.61,12.34Z"/>
    <path class="cls-1" d="M358.27,115.06c-.34,1.74-.68,2.56-1.34,3.3-.97,1.06-2.26,1.45-4.92,1.45-1.82,0-2.76-.16-3.55-.61-.82-.48-1.24-1.29-1.24-2.4,0-1.98.89-5.78,1.68-7.13,1.03-1.8,2.63-2.51,5.55-2.51,3.24,0,4.58.74,4.58,2.54,0,.55-.05.95-.21,1.82h-2.4c.13-.53.16-.79.16-1.08,0-1-.63-1.32-2.55-1.32-2.18,0-2.87.5-3.42,2.46-.55,1.98-.84,3.59-.84,4.57,0,1.43.47,1.72,2.79,1.72s2.82-.42,3.29-2.8h2.42Z"/>
    <path class="cls-1" d="M362.01,119.66h-2.42l2.61-12.34h2.42l-2.61,12.34ZM365.25,104.34h-2.42l.5-2.3h2.42l-.5,2.3Z"/>
    <path class="cls-1" d="M376.77,107.88c.58.45.92,1.29.92,2.3s-.37,3.09-.87,4.91c-1.05,3.78-2.34,4.73-6.5,4.73-2.16,0-3.24-.21-3.92-.71-.61-.45-.92-1.32-.92-2.4,0-1.29.63-4.44,1.26-6.21.58-1.64,1.61-2.64,3.11-3.04.68-.21,1.68-.29,3.03-.29,2.18,0,3.24.19,3.9.71ZM369.04,111.13c-.5,1.53-1.03,4.15-1.03,5.04,0,1.37.5,1.69,2.69,1.69s2.97-.47,3.5-2.27c.5-1.69.95-4.01.95-4.83,0-1.32-.53-1.64-2.69-1.64s-2.92.42-3.42,2.01Z"/>
    <path class="cls-1" d="M383.54,107.32l-.47,1.9.05.03c.87-1.43,2.24-2.09,4.34-2.09,2.5,0,3.79.79,3.79,2.35,0,.53-.05.82-.26,1.93l-1.76,8.21h-2.42l1.63-7.63c.21-.92.24-1.16.24-1.5,0-1-.58-1.38-2.16-1.38-2.37,0-3.55.93-4.03,3.14l-1.55,7.37h-2.42l2.61-12.34h2.42Z"/>
    <path class="cls-1" d="M403.69,115.8c-.55,3.06-2.03,4.02-6.19,4.02-3.5,0-4.82-.82-4.82-3.01s.95-6.05,1.82-7.39c1.03-1.61,2.58-2.25,5.55-2.25,1.68,0,2.74.19,3.45.55.74.45,1.16,1.29,1.16,2.4,0,.87-.08,1.43-.58,3.8h-8.58c-.24,1.11-.32,1.77-.32,2.35,0,1.27.61,1.64,2.66,1.64,2.55,0,3-.29,3.4-2.11h2.45ZM402.01,112.29c.24-1.27.26-1.45.26-1.77,0-1.19-.55-1.51-2.61-1.51-2.61,0-3.18.5-3.76,3.28h6.11Z"/>
    <path class="cls-1" d="M414.96,110.65c.05-.37.05-.53.05-.74,0-.82-.4-.98-2.63-.98-1.71,0-2.29.13-2.63.63-.29.4-.5,1.21-.5,1.88,0,.4.16.61.5.74q.26.11,2.45.21c2.61.13,2.63.16,3.29.37.79.26,1.24,1,1.24,1.98,0,1.35-.5,2.8-1.24,3.62-.95,1.08-2.29,1.45-5.34,1.45-3.4,0-4.61-.63-4.61-2.46,0-.45.05-.85.24-1.61h2.5c-.16.53-.18.77-.18,1.11,0,.98.5,1.19,2.61,1.19,1.76,0,2.63-.24,3.03-.85.29-.42.5-1.21.5-1.82,0-.74-.32-.95-1.5-.98-1.71-.03-3.4-.13-4-.27-1.37-.26-1.97-.87-1.97-2.01,0-1.38.55-3.06,1.24-3.78.82-.85,2.24-1.19,4.97-1.19,3.37,0,4.53.55,4.53,2.22,0,.34-.05.66-.16,1.27h-2.37Z"/>
    <path class="cls-1" d="M428.14,117.23h8.58l-.5,2.43h-11.29l3.74-17.62h2.68l-3.21,15.19Z"/>
    <path class="cls-1" d="M449.22,107.88c.58.45.92,1.29.92,2.3s-.37,3.09-.87,4.91c-1.05,3.78-2.34,4.73-6.5,4.73-2.16,0-3.24-.21-3.92-.71-.61-.45-.92-1.32-.92-2.4,0-1.29.63-4.44,1.26-6.21.58-1.64,1.61-2.64,3.11-3.04.68-.21,1.68-.29,3.03-.29,2.18,0,3.24.19,3.9.71ZM441.48,111.13c-.5,1.53-1.03,4.15-1.03,5.04,0,1.37.5,1.69,2.69,1.69s2.97-.47,3.5-2.27c.5-1.69.95-4.01.95-4.83,0-1.32-.53-1.64-2.69-1.64s-2.92.42-3.42,2.01Z"/>
    <path class="cls-1" d="M461.53,120.16c-.82,3.83-2.37,4.99-6.74,4.99-3,0-4.29-.71-4.29-2.35,0-.53.05-.9.24-1.77h2.32c-.11.55-.13.74-.13,1.06,0,.87.58,1.13,2.5,1.13,2.32,0,3.16-.63,3.58-2.64l.55-2.64h-.03c-.82,1.29-2.05,1.85-4.21,1.85-2.61,0-3.92-1.03-3.92-3.12,0-1.03.34-2.93.89-4.97.61-2.14,1.29-3.17,2.58-3.88.82-.42,1.89-.66,3.18-.66,2.16,0,3.08.55,3.42,2.03l.05-.03.29-1.85h2.42l-2.71,12.84ZM454.85,111.5c-.45,1.51-.87,3.75-.87,4.54,0,1.32.61,1.77,2.47,1.77,2.03,0,3-.66,3.53-2.4.42-1.43.87-3.59.87-4.33,0-1.45-.63-1.93-2.58-1.93-2.05,0-2.92.61-3.42,2.35Z"/>
    <path class="cls-1" d="M467.06,119.66h-2.42l2.61-12.34h2.42l-2.61,12.34ZM472.56,103.68l-5.13,2.35-.45-1.19,4.87-2.98.71,1.82Z"/>
    <path class="cls-1" d="M479.56,110.65c.05-.37.05-.53.05-.74,0-.82-.4-.98-2.63-.98-1.71,0-2.29.13-2.63.63-.29.4-.5,1.21-.5,1.88,0,.4.16.61.5.74q.26.11,2.45.21c2.61.13,2.63.16,3.29.37.79.26,1.24,1,1.24,1.98,0,1.35-.5,2.8-1.24,3.62-.95,1.08-2.29,1.45-5.34,1.45-3.4,0-4.61-.63-4.61-2.46,0-.45.05-.85.24-1.61h2.5c-.16.53-.18.77-.18,1.11,0,.98.5,1.19,2.61,1.19,1.76,0,2.63-.24,3.03-.85.29-.42.5-1.21.5-1.82,0-.74-.32-.95-1.5-.98-1.71-.03-3.4-.13-4-.27-1.37-.26-1.97-.87-1.97-2.01,0-1.38.55-3.06,1.24-3.78.82-.85,2.24-1.19,4.97-1.19,3.37,0,4.53.55,4.53,2.22,0,.34-.05.66-.16,1.27h-2.37Z"/>
    <path class="cls-1" d="M492.27,109.23h-4.71l-1.45,6.81c-.08.4-.13.77-.13.95,0,.69.29.9,1.24.9,1.05,0,1.45-.27,1.79-1.19.18-.47.32-.98.39-1.61h2.11c-.37,1.85-.53,2.38-.95,3.01-.82,1.24-1.92,1.72-3.95,1.72-2.18,0-3.19-.63-3.19-2.01,0-.42.03-.66.21-1.53l1.5-7.05h-1.66l.42-1.9h1.63l.61-2.85h2.42l-.61,2.85h4.71l-.39,1.9Z"/>
    <path class="cls-1" d="M494.56,119.66h-2.42l2.61-12.34h2.42l-2.61,12.34ZM497.8,104.34h-2.42l.5-2.3h2.42l-.5,2.3Z"/>
    <path class="cls-1" d="M509.11,115.06c-.34,1.74-.68,2.56-1.34,3.3-.97,1.06-2.26,1.45-4.92,1.45-1.82,0-2.76-.16-3.55-.61-.82-.48-1.24-1.29-1.24-2.4,0-1.98.89-5.78,1.68-7.13,1.03-1.8,2.63-2.51,5.55-2.51,3.24,0,4.58.74,4.58,2.54,0,.55-.05.95-.21,1.82h-2.4c.13-.53.16-.79.16-1.08,0-1-.63-1.32-2.55-1.32-2.18,0-2.87.5-3.42,2.46-.55,1.98-.84,3.59-.84,4.57,0,1.43.47,1.72,2.79,1.72s2.82-.42,3.29-2.8h2.42Z"/>
    <path class="cls-1" d="M512.21,110.84c.66-2.98,1.76-3.67,5.9-3.67,2.13,0,3.24.24,3.97.92.37.34.61.93.61,1.53,0,.4-.13,1.45-.24,1.93l-1.71,8.11h-2.42l.47-1.51-.05-.03c-1,1.29-2,1.69-4.42,1.69-2.82,0-3.87-.66-3.87-2.48,0-1.4.58-3.09,1.4-3.96.74-.79,2.16-1.21,4.16-1.21,1.32,0,2.32.13,2.92.42.34.16.53.4.66.9h.05l.37-1.74c.13-.66.18-1,.18-1.4,0-1.14-.55-1.48-2.4-1.48-2.29,0-2.82.34-3.16,1.98h-2.42ZM513.5,114.72c-.26.45-.5,1.4-.5,2.09,0,.85.66,1.16,2.53,1.16,1.71,0,2.79-.32,3.24-.95.29-.42.5-1.21.5-1.9,0-.9-.76-1.24-2.76-1.24-1.79,0-2.61.24-3,.85Z"/>
    <path class="cls-1" d="M533.16,110.65c.05-.37.05-.53.05-.74,0-.82-.4-.98-2.63-.98-1.71,0-2.29.13-2.63.63-.29.4-.5,1.21-.5,1.88,0,.4.16.61.5.74q.26.11,2.45.21c2.61.13,2.63.16,3.29.37.79.26,1.24,1,1.24,1.98,0,1.35-.5,2.8-1.24,3.62-.95,1.08-2.29,1.45-5.34,1.45-3.4,0-4.61-.63-4.61-2.46,0-.45.05-.85.24-1.61h2.5c-.16.53-.18.77-.18,1.11,0,.98.5,1.19,2.61,1.19,1.76,0,2.63-.24,3.03-.85.29-.42.5-1.21.5-1.82,0-.74-.32-.95-1.5-.98-1.71-.03-3.4-.13-4-.27-1.37-.26-1.97-.87-1.97-2.01,0-1.38.55-3.06,1.24-3.78.82-.85,2.24-1.19,4.97-1.19,3.37,0,4.53.55,4.53,2.22,0,.34-.05.66-.16,1.27h-2.37Z"/>
  </g>
  <g>
    <polygon class="cls-1" points="36.79 .53 16.28 .53 0 85.53 52.61 85.53 56.23 68.47 22.6 68.6 36.79 .53"/>
    <path class="cls-1" d="M211.49,37.58h-34.5l-2.98,15.5h14.21c-1.83,11.47-5.02,15.37-17.51,15.37-8.71,0-11.6-3.52-11.6-9.19,0-3.4,1.15-10.71,3.9-23.82,2.86-13.62,5.96-16.26,18.91-16.26,8.6,0,11.23,1.51,11,6.3l-.11,1.76h20.75c.8-4.54,1.03-7.18,1.03-9.96,0-8.19-2.64-12.6-9.17-15-3.67-1.39-8.25-1.89-18.57-1.89-12.72,0-18.11.63-23.38,2.77-8.14,3.28-13.75,9.07-17.31,17.77-3.21,7.56-8.82,35.8-8.82,43.74,0,6.18,1.95,11.97,5.27,15.13,4.81,4.66,9.74,5.92,23.73,5.92s19.94-.76,24.53-2.65c8.71-3.53,13.52-10.09,16.28-22.06q.8-3.53,3.9-20.93l.46-2.52Z"/>
    <polygon class="cls-1" points="225.7 0 209.43 85.53 229.94 85.53 246.22 0 225.7 0"/>
    <path class="cls-1" d="M309.23.2l-6.42,34.16c-1.95,10.36-2.18,11.26-3.9,23.03l-1.15,7.68h-.8c-.57-4.86-1.15-9.6-1.83-14.46l-2.06-14.46L287.79.2h-34.5l-16.28,85.34h20.06l6.42-34.16c1.95-9.98,2.29-12.03,4.01-23.67l1.15-7.93h.92c1.15,10.11,2.41,20.09,3.9,29.81l5.16,35.95h34.73L329.63.2h-20.4Z"/>
    <path class="cls-1" d="M358.38,68.41c-8.37,0-11.33-3.98-11.33-9.4,0-4.41,4.01-25.08,6.08-31.26,1.95-5.92,5.5-7.94,13.64-7.94,8.94,0,11.46,1.26,11.46,5.8,0,.76-.23,2.39-.46,3.91,0,.25-.11.88-.23,1.64h20.29c1.6-9.33,1.83-11.22,1.83-14.75,0-5.04-1.83-9.7-4.81-11.97-4.35-3.28-8.02-4.03-20.97-4.03-15.36,0-20.86,1.01-27.39,5.04-8.37,5.17-12.49,12.1-15.59,25.97-2.41,10.59-5.39,29.62-5.39,33.91,0,6.8,2.29,12.6,6.3,16.01,4.13,3.53,8.48,4.41,21.66,4.41,9.05,0,14.44-.25,16.96-.76,6.07-1.13,12.38-4.91,16.16-9.7,3.1-3.78,4.58-8.19,6.76-19.41.11-.25.34-1.39.57-2.52h-20.29c-1.83,10.97-4.49,15.07-15.26,15.07Z"/>
    <path class="cls-1" d="M541.88,2.77c-3.24-1.79-8.09-2.55-16.64-2.55h-38.82l-16.41,85.25h20.68l4.39-22.62h15.36c4.85,0,6.93,1.92,6.93,6.39,0,1.4-.23,3.19-.46,4.86l-2.2,11.37h21.03l3-15.59c.46-2.3.58-3.71.58-5.37,0-7.03-3.81-10.86-11.32-11.25l.12-.9c8.2-2.04,11.09-3.71,13.86-8.05,3.35-5.24,6.93-19.81,6.93-28.37,0-5.88-2.54-10.61-7.05-13.17ZM524.21,37.28c-1.39,4.6-3.81,6.26-9.01,6.26h-16.41l4.51-23.77h15.48c6.12,0,7.74,1.15,7.74,5.5,0,1.92-1.39,8.95-2.31,12.01Z"/>
    <path class="cls-3" d="M128.21,3.29c-4.13-2.14-9.05-2.9-19.26-2.9-12.38,0-18.57,1.01-24.3,3.78-8.25,4.16-12.84,9.58-16.16,18.91-1.18,3.53-2.59,9.11-3.88,15.11,2.24-1.08,4.71-1.69,7.31-1.69,5.05,0,9.62,2.26,12.94,5.92,2.88-14.14,3.2-15.26,5.18-18.08,2.64-3.65,5.5-4.66,13.87-4.66,9.86,0,12.26,1.51,12.26,7.56,0,3.66-2.52,18.4-4.47,25.46-2.98,11.47-5.73,13.74-16.62,13.74-2.84,0-5.07-.12-6.83-.42-4.22-.71-5.67-2.43-5.87-5.99-.02-.29-.03-.59-.03-.9,0-.48.03-1.07.08-1.75.17-2.18-.04-4.43-.99-6.35-1.84-3.75-5.41-6.29-9.53-6.29s-7.65,2.51-9.52,6.21c-.31.63-.5,1.34-.61,2.04-.27,1.66-.51,3.24-.7,4.7-.39,2.87-.62,5.29-.62,6.87,0,3.67.54,6.75,1.63,9.41.82,2,1.94,3.77,3.41,5.34,4.7,4.79,10.66,6.43,24.19,6.43,11.81,0,18.91-1.14,24.53-3.91,7.79-3.65,12.61-9.58,16.05-19.41,2.86-8.19,7.68-33.91,7.68-40.96,0-8.95-3.1-14.62-9.74-18.15Z"/>
    <path class="cls-2" d="M476.59,21.45c0-8.95-3.1-14.62-9.74-18.15-4.13-2.14-9.05-2.9-19.26-2.9-12.38,0-18.57,1.01-24.3,3.78-8.25,4.16-12.84,9.58-16.16,18.91-3.21,9.58-8.02,34.16-8.02,41.47,0,6.43,1.6,11.09,5.04,14.75,4.7,4.79,10.66,6.43,24.19,6.43,11.81,0,18.91-1.14,24.53-3.91,5.16-2.42,8.99-5.86,12-10.74-1.17.26-2.38.4-3.62.4-6.26,0-11.78-3.48-15.09-8.79-2.48,2.96-6.05,3.76-12.44,3.76-10.2,0-12.72-1.51-12.72-7.31,0-2.9.92-9.33,2.64-17.4,2.75-13.49,3.1-14.62,5.04-17.39,2.64-3.65,5.5-4.66,13.87-4.66,9.86,0,12.26,1.51,12.26,7.56,0,1-.19,2.84-.51,5.11-.47,3.42-1.22,7.84-2.05,11.97-.44,2.19-.89,4.29-1.34,6.12-.36,1.48-.4,3.06.03,4.52,1.43,4.8,5.48,8.28,10.3,8.28,3.71,0,6.98-2.06,8.95-5.2.6-2.28,1.24-4.96,1.87-7.86.9-4.14,1.77-8.66,2.52-12.94,1.17-6.75,2-12.87,2-15.79Z"/>
  </g>
</svg>